<?xml version="1.0" standalone="no"?>
<!DOCTYPE svg PUBLIC "-//W3C//DTD SVG 20010904//EN"
 "http://www.w3.org/TR/2001/REC-SVG-20010904/DTD/svg10.dtd">
<svg version="1.0" xmlns="http://www.w3.org/2000/svg"
 width="96.000000pt" height="96.000000pt" viewBox="0 0 96.000000 96.000000"
 preserveAspectRatio="xMidYMid meet">
<metadata>
Created by potrace 1.11, written by Peter Selinger 2001-2013
</metadata>
<g transform="translate(0.000000,96.000000) scale(0.100000,-0.100000)"
fill="#000000" stroke="none">
<path d="M275 756 l-190 -82 0 -34 0 -34 198 -85 197 -84 198 84 197 85 0 33
0 34 -193 84 c-106 45 -199 83 -205 82 -7 0 -97 -37 -202 -83z m342 -58 c67
-29 123 -55 123 -58 0 -7 -246 -110 -262 -110 -15 0 -258 103 -258 110 0 8
233 108 255 109 10 1 74 -23 142 -51z"/>
<path d="M80 512 l0 -59 200 -86 199 -87 201 87 200 86 0 59 c0 32 -2 58 -4
58 -22 0 -76 -34 -76 -48 0 -12 -42 -35 -160 -86 l-160 -69 -160 69 c-118 51
-160 74 -160 86 0 14 -54 48 -76 48 -2 0 -4 -26 -4 -58z"/>
<path d="M80 352 l0 -59 200 -86 199 -87 201 87 200 86 0 59 c0 32 -2 58 -4
58 -22 0 -76 -34 -76 -48 0 -11 -17 -24 -48 -36 -26 -11 -78 -34 -117 -51 -38
-17 -89 -39 -112 -49 l-42 -19 -160 69 c-119 51 -161 74 -161 86 0 14 -54 48
-76 48 -2 0 -4 -26 -4 -58z"/>
</g>
</svg>
